<svg version="1.1" id="Layer_1" xmlns="http://www.w3.org/2000/svg" xmlns:xlink="http://www.w3.org/1999/xlink" x="0px" y="0px"
	 width="100%" viewBox="0 0 1024 1024" enable-background="new 0 0 1024 1024" xml:space="preserve">
<path fill="#FFFFFF" opacity="1.000000" stroke="none" 
	d="
M709.000000,1025.000000 
	C472.666656,1025.000000 236.833328,1025.000000 1.000000,1025.000000 
	C1.000000,683.666687 1.000000,342.333344 1.000000,1.000000 
	C342.333344,1.000000 683.666687,1.000000 1025.000000,1.000000 
	C1025.000000,342.333344 1025.000000,683.666687 1025.000000,1025.000000 
	C919.833313,1025.000000 814.666687,1025.000000 709.000000,1025.000000 
M850.011536,489.982300 
	C848.618652,475.978180 848.085815,461.823547 845.666382,447.999084 
	C839.250916,411.342194 826.674072,376.652496 809.040527,343.942047 
	C788.678955,306.171204 762.521423,272.933472 729.790527,244.920624 
	C689.216614,210.195419 643.397156,185.645981 591.667542,172.181305 
	C569.873047,166.508423 547.646912,163.507553 525.245300,162.385086 
	C514.137390,161.828506 502.919556,163.354401 491.757050,164.030838 
	C483.150421,164.552414 474.506317,164.840317 465.958771,165.885406 
	C427.650757,170.569244 391.917877,183.406815 358.093933,201.515152 
	C311.038147,226.707397 271.791321,261.000519 240.807266,304.578003 
	C215.768402,339.793884 197.898407,378.321381 187.277328,420.233215 
	C180.907959,445.367371 177.183319,470.882751 176.117691,496.752594 
	C174.944870,525.225037 177.640106,553.420166 182.837418,581.431824 
	C188.606949,612.527527 198.420181,642.280334 211.877029,670.838501 
	C227.213409,703.385498 247.597778,732.647766 271.822632,759.077942 
	C292.552063,781.694641 316.033203,801.248291 342.161896,817.546143 
	C369.787109,834.777588 399.322083,847.531189 430.764282,855.792786 
	C454.215637,861.954834 478.017090,866.033569 502.379822,865.980164 
	C510.605225,865.962158 518.853210,866.357483 527.050842,865.878174 
	C539.133118,865.171570 551.388000,864.897827 563.192078,862.545837 
	C580.836487,859.030212 598.343506,854.496948 615.568237,849.272949 
	C649.729553,838.912537 680.498291,821.647583 709.004272,800.422974 
	C732.036621,783.273865 752.433838,763.261108 770.638916,741.015625 
	C785.615784,722.714844 798.834534,703.198975 809.642517,682.221191 
	C824.240112,653.887939 835.402710,624.202515 842.149841,592.937927 
	C846.249512,573.940613 849.607483,554.866821 850.779358,534.803833 
	C851.039246,525.843445 851.539612,516.881287 851.471741,507.923401 
	C851.428772,502.246857 850.539612,496.576691 850.011536,489.982300 
z"/>
<path fill="#8A61A9" opacity="1.000000" stroke="none" 
	d="
M850.083191,535.382202 
	C849.607483,554.866821 846.249512,573.940613 842.149841,592.937927 
	C835.402710,624.202515 824.240112,653.887939 809.642517,682.221191 
	C798.834534,703.198975 785.615784,722.714844 770.638916,741.015625 
	C752.433838,763.261108 732.036621,783.273865 709.004272,800.422974 
	C680.498291,821.647583 649.729553,838.912537 615.568237,849.272949 
	C598.343506,854.496948 580.836487,859.030212 563.192078,862.545837 
	C551.388000,864.897827 539.133118,865.171570 527.050842,865.878174 
	C518.853210,866.357483 510.605225,865.962158 502.379822,865.980164 
	C478.017090,866.033569 454.215637,861.954834 430.764282,855.792786 
	C399.322083,847.531189 369.787109,834.777588 342.161896,817.546143 
	C316.033203,801.248291 292.552063,781.694641 271.822632,759.077942 
	C247.597778,732.647766 227.213409,703.385498 211.877029,670.838501 
	C198.420181,642.280334 188.606949,612.527527 182.837418,581.431824 
	C177.640106,553.420166 174.944870,525.225037 176.117691,496.752594 
	C177.183319,470.882751 180.907959,445.367371 187.277328,420.233215 
	C197.898407,378.321381 215.768402,339.793884 240.807266,304.578003 
	C271.791321,261.000519 311.038147,226.707397 358.093933,201.515152 
	C391.917877,183.406815 427.650757,170.569244 465.958771,165.885406 
	C474.506317,164.840317 483.150421,164.552414 491.757050,164.030838 
	C502.919556,163.354401 514.137390,161.828506 525.245300,162.385086 
	C547.646912,163.507553 569.873047,166.508423 591.667542,172.181305 
	C643.397156,185.645981 689.216614,210.195419 729.790527,244.920624 
	C762.521423,272.933472 788.678955,306.171204 809.040527,343.942047 
	C826.674072,376.652496 839.250916,411.342194 845.666382,447.999084 
	C848.085815,461.823547 848.618652,475.978180 850.009644,490.918030 
	C850.032898,506.363220 850.058044,520.872742 850.083191,535.382202 
M549.002441,659.954773 
	C595.634705,659.933350 642.266907,659.911987 689.726562,659.939087 
	C691.179199,659.649841 692.621948,659.290710 694.086060,659.082092 
	C711.559692,656.592651 728.429443,642.253418 731.740173,624.704041 
	C733.952698,612.976074 733.386902,600.723877 734.933594,588.779968 
	C747.984924,588.671143 760.104309,585.145569 771.263733,578.486572 
	C810.358826,555.158020 820.267639,502.323761 791.951965,466.644409 
	C777.272705,448.147583 758.210205,437.697723 734.024231,437.127533 
	C734.022034,420.799835 734.016663,404.472107 734.018433,388.144409 
	C734.021301,361.361145 712.352356,337.303101 683.841248,337.836945 
	C651.696960,338.438843 619.532715,337.992889 587.377319,337.923492 
	C585.519348,337.919495 583.662903,337.204193 581.967834,336.116638 
	C588.955627,319.819672 594.007202,303.330200 591.040894,285.098938 
	C587.198730,261.484070 575.737488,242.790436 556.008606,229.620071 
	C523.824646,208.135056 484.581146,212.301727 456.835022,239.484619 
	C440.959717,255.037674 433.476257,274.339050 433.201111,296.124481 
	C433.015533,310.818329 437.586639,324.782898 443.228485,338.000793 
	C408.795349,337.991852 374.361969,337.924133 339.929352,338.054962 
	C336.016083,338.069824 332.012848,338.849640 328.211578,339.871063 
	C306.861603,345.607727 293.682251,365.251465 293.097229,386.664307 
	C292.629456,403.784943 292.992950,420.928253 292.058777,438.051605 
	C281.947906,437.324829 272.157715,439.167786 263.035339,443.221924 
	C227.932068,458.822357 212.322418,492.508636 219.183121,529.434998 
	C225.528381,563.587280 258.719055,589.579651 292.974854,589.620178 
	C292.976532,593.943359 293.064026,598.268616 292.962280,602.589355 
	C292.742157,611.936523 293.494751,621.067078 297.035645,629.904175 
	C303.860840,646.938049 320.765869,659.423767 339.018982,659.956299 
	C367.655151,659.945557 396.291321,659.934753 425.709290,659.982239 
	C426.492615,659.967102 427.275909,659.951904 428.983856,659.973022 
	C438.966583,659.958252 448.949341,659.943481 459.642090,659.975586 
	C460.115967,659.960754 460.589874,659.945923 461.986847,659.971619 
	C468.299408,659.954285 474.611969,659.936951 481.564850,660.484558 
	C481.564850,671.527161 481.564850,682.569763 481.564850,694.016602 
	C479.368073,694.016602 477.562653,694.016541 475.757233,694.016602 
	C456.962891,694.017273 438.168335,693.969910 419.374237,694.037354 
	C408.807281,694.075256 401.161407,701.767944 401.024475,712.274902 
	C400.896606,722.088928 408.940369,729.966187 419.211151,730.045532 
	C423.867767,730.081543 428.524933,730.047180 433.077637,730.965942 
	C432.190552,758.142151 442.208893,780.559265 463.188324,797.708923 
	C477.513977,809.419434 494.463165,815.096130 512.862305,815.855225 
	C517.968445,816.065918 523.216309,814.743652 528.286743,813.618286 
	C567.839600,804.839783 593.946777,769.906982 592.775574,730.013306 
	C598.268799,730.021240 603.770630,730.223389 609.252747,729.980469 
	C614.365295,729.753906 619.120178,728.277222 622.153076,723.686768 
	C626.512024,717.089172 627.474609,710.203247 623.529053,703.023071 
	C619.828186,696.288208 613.855530,693.966675 606.501343,693.994568 
	C588.190491,694.064148 569.879272,694.021545 551.568176,694.000610 
	C549.818542,693.998596 548.069031,693.832336 546.025085,693.727234 
	C546.025085,682.994141 545.970642,672.855713 546.114685,662.720154 
	C546.128113,661.773987 547.396912,660.845642 549.002441,659.954773 
z"/>
<path fill="#6B498D" opacity="1.000000" stroke="none" 
	d="
M850.431274,535.093018 
	C850.058044,520.872742 850.032898,506.363220 850.018921,491.378723 
	C850.539612,496.576691 851.428772,502.246857 851.471741,507.923401 
	C851.539612,516.881287 851.039246,525.843445 850.431274,535.093018 
z"/>
<path fill="#B783C8" opacity="1.000000" stroke="none" 
	d="
M292.987549,438.061523 
	C292.992950,420.928253 292.629456,403.784943 293.097229,386.664307 
	C293.682251,365.251465 306.861603,345.607727 328.211578,339.871063 
	C332.012848,338.849640 336.016083,338.069824 339.929352,338.054962 
	C374.361969,337.924133 408.795349,337.991852 443.929962,337.989899 
	C444.631439,337.979004 445.057770,338.100128 445.354187,338.382111 
	C450.747101,338.477142 455.843597,338.290222 461.373932,338.040161 
	C463.558411,338.019073 465.309082,338.061157 467.357788,338.384766 
	C474.417480,338.478210 481.179077,338.290070 488.382294,338.038300 
	C490.902466,338.017334 492.981018,338.060028 495.350189,338.380798 
	C499.406586,338.474854 503.172363,338.290833 507.290588,338.047485 
	C508.116150,338.028046 508.589294,338.067932 509.353882,338.384399 
	C513.410706,338.474152 517.176025,338.287384 521.409973,338.036804 
	C529.270325,338.019989 536.662170,338.066986 544.190796,338.323364 
	C544.867249,338.392822 545.406860,338.252808 546.354980,338.047882 
	C547.862610,338.028168 548.961792,338.073425 550.238403,338.349152 
	C551.256348,338.426910 552.096924,338.274231 553.405884,338.055237 
	C561.270203,338.030396 568.665955,338.071930 576.270508,338.357452 
	C577.637451,338.429291 578.795654,338.257141 580.211548,337.969421 
	C580.914734,337.509216 581.360229,337.164581 581.805786,336.819946 
	C583.662903,337.204193 585.519348,337.919495 587.377319,337.923492 
	C619.532715,337.992889 651.696960,338.438843 683.841248,337.836945 
	C712.352356,337.303101 734.021301,361.361145 734.018433,388.144409 
	C734.016663,404.472107 734.022034,420.799835 734.010193,437.856140 
	C733.954712,438.750061 733.913330,438.915344 733.595703,439.380432 
	C733.214233,440.496643 733.016846,441.313049 733.016602,442.129486 
	C733.000671,489.328308 732.993225,536.527100 733.038208,583.725891 
	C733.039551,585.130005 733.607300,586.533630 733.991089,588.121338 
	C734.071106,588.305237 734.064453,588.706299 734.064453,588.706299 
	C733.386902,600.723877 733.952698,612.976074 731.740173,624.704041 
	C728.429443,642.253418 711.559692,656.592651 694.086060,659.082092 
	C692.621948,659.290710 691.179199,659.649841 689.022156,659.636169 
	C687.336975,659.222839 686.356262,659.016235 685.375427,659.015869 
	C641.013367,658.999207 596.651367,658.992310 552.289368,659.038208 
	C550.886902,659.039673 549.484985,659.606018 548.082825,659.909058 
	C547.396912,660.845642 546.128113,661.773987 546.114685,662.720154 
	C545.970642,672.855713 546.025085,682.994141 546.025085,693.727234 
	C548.069031,693.832336 549.818542,693.998596 551.568176,694.000610 
	C569.879272,694.021545 588.190491,694.064148 606.501343,693.994568 
	C613.855530,693.966675 619.828186,696.288208 623.529053,703.023071 
	C627.474609,710.203247 626.512024,717.089172 622.153076,723.686768 
	C619.120178,728.277222 614.365295,729.753906 609.252747,729.980469 
	C603.770630,730.223389 598.268799,730.021240 592.065308,730.015686 
	C591.354980,730.018066 590.915100,729.879211 590.618286,729.599731 
	C589.338562,729.216675 588.355652,729.022827 587.372681,729.022522 
	C537.683044,729.006226 487.993378,728.999329 438.303772,729.042053 
	C436.896667,729.043274 435.490021,729.592957 433.864105,729.962158 
	C433.645050,730.037415 433.181854,730.044678 433.181854,730.044678 
	C428.524933,730.047180 423.867767,730.081543 419.211151,730.045532 
	C408.940369,729.966187 400.896606,722.088928 401.024475,712.274902 
	C401.161407,701.767944 408.807281,694.075256 419.374237,694.037354 
	C438.168335,693.969910 456.962891,694.017273 475.757233,694.016602 
	C477.562653,694.016541 479.368073,694.016602 481.564850,694.016602 
	C481.564850,682.569763 481.564850,671.527161 480.955475,659.916016 
	C473.918640,659.541992 467.491211,659.736511 461.063751,659.931030 
	C460.589874,659.945923 460.115967,659.960754 458.996826,659.665771 
	C450.957214,659.237854 443.562500,659.026733 436.168579,659.050415 
	C433.464539,659.059082 430.762299,659.625000 428.059235,659.936768 
	C427.275909,659.951904 426.492615,659.967102 425.028015,659.667969 
	C423.535339,659.236389 422.723999,659.017090 421.912567,659.016541 
	C395.214172,658.998901 368.515778,658.990479 341.817474,659.039734 
	C340.579559,659.041992 339.342621,659.587646 338.105225,659.880188 
	C320.765869,659.423767 303.860840,646.938049 297.035645,629.904175 
	C293.494751,621.067078 292.742157,611.936523 292.962280,602.589355 
	C293.064026,598.268616 292.976532,593.943359 292.977600,588.690247 
	C292.982758,537.860718 292.985168,487.961121 292.987549,438.061523 
M696.004944,393.566864 
	C696.004944,393.566864 695.836426,393.103638 695.899841,392.333435 
	C695.034729,385.450714 690.727722,381.185455 684.661926,377.482117 
	C684.072815,377.346710 683.483643,377.211304 682.973633,377.057007 
	C682.973633,377.057007 682.973511,377.138336 682.569153,376.462158 
	C680.184387,375.975189 677.800232,375.066376 675.414795,375.063019 
	C618.596375,374.983368 561.777832,375.000854 504.959320,375.000854 
	C453.472748,375.000854 401.986084,374.965912 350.499908,375.109009 
	C348.018433,375.115906 345.541382,376.692627 342.507721,377.877380 
	C337.076996,379.717651 333.970245,383.969330 330.633698,389.212555 
	C330.089600,391.576080 329.079468,393.938080 329.071777,396.303375 
	C328.967651,428.270264 329.003479,460.237671 329.003448,492.204926 
	C329.003387,528.001587 328.907562,563.798828 329.140015,599.593994 
	C329.164673,603.385986 331.112152,607.165405 332.083252,610.970093 
	C332.083252,610.970093 332.087769,610.883667 332.072235,611.528015 
	C332.422150,612.011169 332.772034,612.494263 333.548370,613.128113 
	C333.830597,613.293030 333.990906,613.537781 334.235626,614.384338 
	C334.527130,614.612854 334.818604,614.841309 335.671387,615.394958 
	C337.924500,616.611572 340.177612,617.828186 342.878143,619.588257 
	C343.932892,619.949280 344.987610,620.310303 346.466675,621.415894 
	C348.258179,621.605652 350.049469,621.958069 351.841248,621.960754 
	C376.659943,621.998169 401.478729,621.988708 426.297485,621.988770 
	C509.581909,621.988892 592.866333,621.998596 676.150696,621.923950 
	C678.090210,621.922180 680.028809,620.966797 682.439941,620.068054 
	C683.150085,619.727417 683.860168,619.386719 685.239990,619.164978 
	C690.946228,616.947937 694.495300,612.882324 695.943420,606.414429 
	C695.943420,606.414429 696.168274,605.981873 696.936523,605.777222 
	C697.291138,604.583130 697.955200,603.389221 697.956055,602.194824 
	C698.005371,534.141113 698.009888,466.087311 697.924133,398.033630 
	C697.922424,396.695251 696.797852,395.358307 696.004944,393.566864 
z"/>
<path fill="#FFFFFF" opacity="1.000000" stroke="none" 
	d="
M544.053955,338.113953 
	C536.662170,338.066986 529.270325,338.019989 520.956421,337.994751 
	C516.377014,338.046936 512.719727,338.077362 509.062439,338.107819 
	C508.589294,338.067932 508.116150,338.028046 506.837341,338.004700 
	C502.374329,338.048370 498.716949,338.075562 495.059601,338.102722 
	C492.981018,338.060028 490.902466,338.017334 487.920410,337.996613 
	C480.364502,338.046783 473.712128,338.074982 467.059723,338.103210 
	C465.309082,338.061157 463.558411,338.019073 460.913910,337.997375 
	C455.032623,338.045197 450.045197,338.072662 445.057770,338.100128 
	C445.057770,338.100128 444.631439,337.979004 444.410095,337.970093 
	C437.586639,324.782898 433.015533,310.818329 433.201111,296.124481 
	C433.476257,274.339050 440.959717,255.037674 456.835022,239.484619 
	C484.581146,212.301727 523.824646,208.135056 556.008606,229.620071 
	C575.737488,242.790436 587.198730,261.484070 591.040894,285.098938 
	C594.007202,303.330200 588.955627,319.819672 581.886841,336.468292 
	C581.360229,337.164581 580.914734,337.509216 579.823364,337.932373 
	C578.138977,338.045074 577.100342,338.079254 576.061768,338.113464 
	C568.665955,338.071930 561.270203,338.030396 553.047729,338.011780 
	C551.501038,338.062683 550.781006,338.090698 550.060913,338.118683 
	C548.961792,338.073425 547.862610,338.028168 546.040466,338.007965 
	C544.896301,338.059967 544.475098,338.086975 544.053955,338.113953 
z"/>
<path fill="#FFFFFF" opacity="1.000000" stroke="none" 
	d="
M590.915100,729.879211 
	C590.915100,729.879211 591.354980,730.018066 591.585327,730.028198 
	C593.946777,769.906982 567.839600,804.839783 528.286743,813.618286 
	C523.216309,814.743652 517.968445,816.065918 512.862305,815.855225 
	C494.463165,815.096130 477.513977,809.419434 463.188324,797.708923 
	C442.208893,780.559265 432.190552,758.142151 433.129761,730.505310 
	C433.181854,730.044678 433.645050,730.037415 434.324463,730.000427 
	C486.974304,729.935364 538.944702,729.907288 590.915100,729.879211 
z"/>
<path fill="#FFFFFF" opacity="1.000000" stroke="none" 
	d="
M292.523163,438.056580 
	C292.985168,487.961121 292.982758,537.860718 292.951874,588.199585 
	C258.719055,589.579651 225.528381,563.587280 219.183121,529.434998 
	C212.322418,492.508636 227.932068,458.822357 263.035339,443.221924 
	C272.157715,439.167786 281.947906,437.324829 292.523163,438.056580 
z"/>
<path fill="#FFFFFF" opacity="1.000000" stroke="none" 
	d="
M734.499023,588.743164 
	C734.064453,588.706299 734.071106,588.305237 734.019775,587.659119 
	C733.936218,537.702209 733.904053,488.391418 733.871887,439.080627 
	C733.913330,438.915344 733.954712,438.750061 734.006958,438.329468 
	C758.210205,437.697723 777.272705,448.147583 791.951965,466.644409 
	C820.267639,502.323761 810.358826,555.158020 771.263733,578.486572 
	C760.104309,585.145569 747.984924,588.671143 734.499023,588.743164 
z"/>
<path fill="#C78FD3" opacity="1.000000" stroke="none" 
	d="
M548.542603,659.931885 
	C549.484985,659.606018 550.886902,659.039673 552.289368,659.038208 
	C596.651367,658.992310 641.013367,658.999207 685.375427,659.015869 
	C686.356262,659.016235 687.336975,659.222839 688.608459,659.611938 
	C642.266907,659.911987 595.634705,659.933350 548.542603,659.931885 
z"/>
<path fill="#C78FD3" opacity="1.000000" stroke="none" 
	d="
M338.562103,659.918213 
	C339.342621,659.587646 340.579559,659.041992 341.817474,659.039734 
	C368.515778,658.990479 395.214172,658.998901 421.912567,659.016541 
	C422.723999,659.017090 423.535339,659.236389 424.637085,659.638794 
	C396.291321,659.934753 367.655151,659.945557 338.562103,659.918213 
z"/>
<path fill="#C78FD3" opacity="1.000000" stroke="none" 
	d="
M428.521545,659.954895 
	C430.762299,659.625000 433.464539,659.059082 436.168579,659.050415 
	C443.562500,659.026733 450.957214,659.237854 458.641846,659.642334 
	C448.949341,659.943481 438.966583,659.958252 428.521545,659.954895 
z"/>
<path fill="#C78FD3" opacity="1.000000" stroke="none" 
	d="
M461.525299,659.951294 
	C467.491211,659.736511 473.918640,659.541992 480.635315,659.633545 
	C474.611969,659.936951 468.299408,659.954285 461.525299,659.951294 
z"/>
<path fill="#3F256A" opacity="1.000000" stroke="none" 
	d="
M331.302429,388.676483 
	C333.970245,383.969330 337.076996,379.717651 343.155731,377.600281 
	C344.564728,377.266602 345.325714,377.210022 346.383484,377.434570 
	C347.835114,377.810791 348.990021,377.988922 350.144897,377.989044 
	C458.964020,378.001068 567.783142,378.002441 676.602295,377.966431 
	C678.028259,377.965942 679.454163,377.478668 681.226807,377.172180 
	C682.040161,377.129974 682.506836,377.134155 682.973511,377.138336 
	C682.973511,377.138336 682.973633,377.057007 683.117737,377.307983 
	C683.841248,377.706207 684.420593,377.853455 685.000000,378.000702 
	C690.727722,381.185455 695.034729,385.450714 695.589355,393.015320 
	C695.188660,394.685608 695.019592,395.674042 695.019409,396.662445 
	C695.008911,465.304779 695.007385,533.947083 695.045532,602.589417 
	C695.046326,604.017029 695.521179,605.444336 695.774902,606.871826 
	C694.495300,612.882324 690.946228,616.947937 684.390625,619.092285 
	C569.837708,619.028076 456.134216,619.036438 342.430725,619.044800 
	C340.177612,617.828186 337.924500,616.611572 335.277313,614.975830 
	C334.598602,614.325256 334.313934,614.093811 334.029297,613.862366 
	C333.990906,613.537781 333.830597,613.293030 333.259277,612.753784 
	C332.676056,611.880859 332.381897,611.382263 332.087769,610.883667 
	C332.087769,610.883667 332.083252,610.970093 332.113403,610.571533 
	C331.809662,608.423157 331.475830,606.673462 331.425140,604.627319 
	C331.803558,603.345581 331.981995,602.360229 331.982208,601.374817 
	C331.996826,532.694031 332.002167,464.013275 331.964172,395.332550 
	C331.963409,393.918579 331.445862,392.504852 331.165741,390.687561 
	C331.208893,389.748199 331.255676,389.212341 331.302429,388.676483 
M539.953186,542.951904 
	C539.953186,542.951904 539.793701,542.948486 540.345154,542.731995 
	C540.541443,542.398193 540.737671,542.064392 541.179260,541.099609 
	C545.424805,536.753601 549.635742,532.373108 553.922607,528.068298 
	C566.590149,515.347778 579.287659,502.657196 592.295837,490.292236 
	C592.517334,489.809906 592.738831,489.327576 593.020325,488.385651 
	C593.187134,488.082153 593.443604,487.935425 594.339294,487.762939 
	C594.541260,487.446777 594.743225,487.130646 594.954407,486.955414 
	C594.954407,486.955414 594.813538,486.944580 595.349182,486.755463 
	C595.549622,486.445404 595.750061,486.135345 595.959595,485.959595 
	C595.959595,485.959595 595.825256,485.950592 596.358459,485.754852 
	C596.554626,485.441406 596.750732,485.127960 596.954773,484.952118 
	C596.954773,484.952118 596.817566,484.939331 597.366455,484.769958 
	C597.556702,484.450836 597.746948,484.131714 597.949707,483.950745 
	C597.949707,483.950745 597.811279,483.940979 598.355225,483.763275 
	C598.551758,483.448822 598.748291,483.134369 598.954468,482.954346 
	C598.954468,482.954346 598.820129,482.943634 599.359131,482.769165 
	C599.557312,482.460297 599.755493,482.151459 599.966431,481.970032 
	C599.966431,481.970032 599.838379,481.968506 600.352844,481.740662 
	C600.553894,481.432251 600.755005,481.123840 601.138062,480.244385 
	C602.038330,479.483368 602.938599,478.722351 604.346191,477.744537 
	C604.553894,477.449249 604.761597,477.153961 604.974548,476.974609 
	C604.974548,476.974609 604.858643,476.968384 605.361328,476.747894 
	C605.562378,476.449768 605.763428,476.151672 606.169434,475.261993 
	C607.394104,474.162811 608.618835,473.063660 610.319336,471.723297 
	C610.540100,471.451233 610.760925,471.179138 611.088379,470.446960 
	C611.265137,470.152863 611.524597,469.992706 612.561646,469.948975 
	C613.020813,469.258301 613.479980,468.567627 613.958557,467.974518 
	C613.958557,467.974518 613.859131,467.978912 614.335266,467.736298 
	C614.550049,467.458954 614.764832,467.181610 615.206787,466.277710 
	C619.605896,462.019714 623.922546,457.698395 625.230164,451.370514 
	C627.349915,441.112732 623.012573,433.406616 613.438293,427.283173 
	C605.914062,422.470917 597.663452,423.996429 589.717773,429.259033 
	C589.493103,429.566956 589.268433,429.874878 589.039307,430.040680 
	C589.039307,430.040680 589.180847,430.054047 588.642029,430.230743 
	C588.439941,430.537689 588.237854,430.844635 587.915588,431.603973 
	C587.732666,431.898102 587.468079,432.039124 586.631775,432.266083 
	C586.430725,432.563812 586.229675,432.861511 586.028870,433.032593 
	C586.028870,433.032593 586.154785,433.046539 585.617920,433.232208 
	C585.432312,433.551880 585.246704,433.871582 585.050903,434.051025 
	C585.050903,434.051025 585.190979,434.063599 584.642883,434.228333 
	C584.445984,434.541382 584.249146,434.854462 584.038757,435.034454 
	C584.038757,435.034454 584.172485,435.037140 583.643677,435.274353 
	C583.459412,435.606140 583.275146,435.937897 583.083557,436.056213 
	C583.083557,436.056213 583.295837,436.079620 582.677002,436.314575 
	C582.459290,436.909607 582.241577,437.504639 581.789307,438.720673 
	C578.554871,441.819611 575.320374,444.918518 571.621765,448.275085 
	C571.425354,448.565552 571.228943,448.856018 570.940735,449.619232 
	C570.754028,449.930206 570.480286,450.066742 569.501221,450.082001 
	C569.014282,450.635803 568.527405,451.189575 567.426453,452.065430 
	C557.351501,462.813599 547.420166,473.701447 537.150818,484.260559 
	C530.355408,491.247772 522.966736,497.654266 516.044495,504.523041 
	C509.964233,510.556274 504.163147,516.870911 497.683807,523.246094 
	C497.473663,523.558777 497.263519,523.871399 497.034088,524.080566 
	C497.034088,524.080566 497.139282,524.086121 496.319702,523.999573 
	C495.496918,524.030884 494.674133,524.062195 493.961304,524.092163 
	C493.961304,524.092163 493.935181,524.198975 493.761597,523.648071 
	C493.442566,523.453064 493.123505,523.258118 492.948303,523.051514 
	C492.948303,523.051514 492.937103,523.195374 492.762756,522.646851 
	C492.445679,522.450989 492.128571,522.255066 491.951294,522.048462 
	C491.951294,522.048462 491.940277,522.188232 491.766510,521.646057 
	C491.455719,521.447144 491.144897,521.248291 490.965851,521.037964 
	C490.965851,521.037964 490.961243,521.170105 490.744354,520.652100 
	C490.439758,520.448547 490.135132,520.244995 489.959839,520.036072 
	C489.959839,520.036072 489.948059,520.164978 489.770569,519.623657 
	C489.452484,519.435913 489.134369,519.248169 488.950989,519.049072 
	C488.950989,519.049072 488.940369,519.183838 488.768341,518.636780 
	C488.450928,518.444397 488.133514,518.252014 487.952332,518.048218 
	C487.952332,518.048218 487.942383,518.184570 487.771454,517.639832 
	C487.460663,517.439392 487.149841,517.238953 486.390533,516.919312 
	C486.099792,516.737549 485.959625,516.475281 485.741821,515.631958 
	C485.440613,515.433167 485.139404,515.234314 484.963959,515.031616 
	C484.963959,515.031616 484.952789,515.156921 484.770447,514.624634 
	C484.459473,514.433044 484.148499,514.241455 483.965424,514.035950 
	C483.965424,514.035950 483.963654,514.164612 483.711060,513.565430 
	C483.384766,513.268982 483.058502,512.972473 482.117310,512.569458 
	C479.736511,510.085907 477.355743,507.602325 474.740692,504.632904 
	C474.449493,504.430267 474.158325,504.227631 473.976227,504.022064 
	C473.976227,504.022064 473.968811,504.130951 473.755707,503.625916 
	C473.456055,503.429016 473.156403,503.232086 472.971893,503.028412 
	C472.971893,503.028412 472.965942,503.143555 472.758118,502.637665 
	C472.464691,502.434326 472.171265,502.230957 471.423096,501.911591 
	C471.130371,501.731598 470.979828,501.469849 470.754974,500.619781 
	C470.450134,500.426544 470.145294,500.233276 469.966888,500.032104 
	C469.966888,500.032104 469.960205,500.158630 469.753662,499.634827 
	C469.443420,499.437805 469.133179,499.240753 468.286011,498.880829 
	C467.850098,498.288666 467.414215,497.696472 466.748596,496.609833 
	C466.445282,496.420105 466.141998,496.230347 465.962433,496.033966 
	C465.962433,496.033966 465.953033,496.157532 465.767609,495.629944 
	C465.461060,495.434937 465.154541,495.239929 464.968872,495.034851 
	C464.968872,495.034851 464.964264,495.156067 464.741455,494.614380 
	C464.437988,494.372437 464.134552,494.130493 463.230896,493.652527 
	C458.503235,488.967834 453.788849,484.269684 449.044006,479.602478 
	C444.945374,475.570953 440.103058,473.681122 434.249573,473.720276 
	C427.096130,473.768127 422.925507,478.307617 418.495728,482.875488 
	C410.810089,490.800751 410.591034,502.116241 418.420258,509.960358 
	C438.755432,530.333984 459.172302,550.626099 479.558472,570.948853 
	C490.134277,581.491760 498.549835,581.811035 510.475952,572.016785 
	C510.935883,571.548157 511.395844,571.079468 511.933289,570.841248 
	C511.933289,570.841248 511.692596,570.875793 512.241943,570.713318 
	C512.484314,570.430725 512.726685,570.148071 513.052612,569.404480 
	C513.225403,569.102295 513.485779,568.954468 514.362732,568.757812 
	C514.558411,568.444763 514.754089,568.131714 514.957825,567.958008 
	C514.957825,567.958008 514.818665,567.947327 515.357605,567.757324 
	C515.552551,567.441345 515.747498,567.125305 515.952820,566.953430 
	C515.952820,566.953430 515.808655,566.942932 516.351868,566.754517 
	C516.546936,566.436218 516.742065,566.117981 516.950256,565.950928 
	C516.950256,565.950928 516.798767,565.942078 517.338135,565.747314 
	C517.540710,565.434143 517.743225,565.121033 517.955566,564.955139 
	C517.955566,564.955139 517.808350,564.945068 518.341797,564.753052 
	C518.546814,564.446411 518.751770,564.139771 518.965942,563.965576 
	C518.965942,563.965576 518.833313,563.959473 519.358276,563.753601 
	C519.558350,563.445740 519.758484,563.137939 520.057495,562.377686 
	C520.235962,562.082458 520.497437,561.944397 521.342957,561.744812 
	C521.553223,561.455139 521.763550,561.165466 521.979126,560.980774 
	C521.979126,560.980774 521.874084,560.977173 522.358459,560.737732 
	C522.561523,560.446777 522.764526,560.155823 523.063660,559.400757 
	C523.243713,559.097961 523.509705,558.953308 524.354553,558.734558 
	C524.560852,558.441711 524.767151,558.148804 524.976013,557.972961 
	C524.976013,557.972961 524.859375,557.963989 525.378357,557.756409 
	C525.571716,557.446594 525.765076,557.136780 526.061829,556.369995 
	C526.245239,556.069885 526.511963,555.936829 527.333313,555.712769 
	C527.545776,555.429077 527.758301,555.145447 528.043091,554.401672 
	C528.213440,554.100708 528.471497,553.951965 529.359131,553.766479 
	C529.553955,553.449524 529.748779,553.132507 529.953247,552.953125 
	C529.953247,552.953125 529.815674,552.941895 530.360840,552.771057 
	C530.560730,552.459534 530.760620,552.148010 531.136292,551.312134 
	C531.695679,550.859802 532.255127,550.407410 533.354736,549.763306 
	C533.552185,549.448364 533.749634,549.133362 533.954834,548.954285 
	C533.954834,548.954285 533.819336,548.942017 534.361511,548.772156 
	C534.558167,548.460815 534.754761,548.149475 534.961853,547.965210 
	C534.961853,547.965210 534.834473,547.959412 535.351929,547.753601 
	C535.556396,547.453247 535.760803,547.152954 535.971436,546.971436 
	C535.971436,546.971436 535.852661,546.964966 536.364563,546.751892 
	C536.564148,546.448669 536.763733,546.145386 536.969116,545.966553 
	C536.969116,545.966553 536.844910,545.958130 537.369690,545.758545 
	C537.563660,545.448242 537.757568,545.137939 537.959290,544.959839 
	C537.959290,544.959839 537.827271,544.949585 538.361938,544.761230 
	C538.557434,544.448914 538.752930,544.136536 538.958130,543.958435 
	C538.958130,543.958435 538.823853,543.949707 539.361877,543.753601 
	C539.553101,543.433533 539.744324,543.113464 539.953186,542.951904 
z"/>
<path fill="#180B4F" opacity="1.000000" stroke="none" 
	d="
M342.654419,619.316528 
	C456.134216,619.036438 569.837708,619.028076 684.055786,619.032837 
	C683.860168,619.386719 683.150085,619.727417 681.738403,620.313599 
	C679.037170,620.590271 677.037476,620.648315 675.037842,620.648499 
	C565.372681,620.659180 455.707520,620.664978 346.042358,620.671326 
	C344.987610,620.310303 343.932892,619.949280 342.654419,619.316528 
z"/>
<path fill="#C48BD0" opacity="1.000000" stroke="none" 
	d="
M682.771362,376.800232 
	C682.506836,377.134155 682.040161,377.129974 680.771790,377.094788 
	C605.660767,377.041779 531.351501,376.999725 457.042175,377.006226 
	C420.057007,377.009430 383.071869,377.101532 346.086700,377.153442 
	C345.325714,377.210022 344.564728,377.266602 343.432983,377.430725 
	C345.541382,376.692627 348.018433,375.115906 350.499908,375.109009 
	C401.986084,374.965912 453.472748,375.000854 504.959320,375.000854 
	C561.777832,375.000854 618.596375,374.983368 675.414795,375.063019 
	C677.800232,375.066376 680.184387,375.975189 682.771362,376.800232 
z"/>
<path fill="#C78FD3" opacity="1.000000" stroke="none" 
	d="
M331.141968,604.923706 
	C331.475830,606.673462 331.809662,608.423157 332.155548,610.561768 
	C331.112152,607.165405 329.164673,603.385986 329.140015,599.593994 
	C328.907562,563.798828 329.003387,528.001587 329.003448,492.204926 
	C329.003479,460.237671 328.967651,428.270264 329.071777,396.303375 
	C329.079468,393.938080 330.089600,391.576080 330.968079,388.944519 
	C331.255676,389.212341 331.208893,389.748199 331.100250,391.145935 
	C331.025146,418.498383 330.987579,444.989014 331.004150,471.479614 
	C331.031952,515.960999 331.094208,560.442322 331.141968,604.923706 
z"/>
<path fill="#CC93D6" opacity="1.000000" stroke="none" 
	d="
M696.197144,394.020721 
	C696.797852,395.358307 697.922424,396.695251 697.924133,398.033630 
	C698.009888,466.087311 698.005371,534.141113 697.956055,602.194824 
	C697.955200,603.389221 697.291138,604.583130 696.516602,605.413269 
	C696.079712,561.478027 696.041260,517.906799 696.053650,474.335510 
	C696.061279,447.563904 696.146729,420.792328 696.197144,394.020721 
z"/>
<path fill="#E1A4E7" opacity="1.000000" stroke="none" 
	d="
M346.254517,621.043579 
	C455.707520,620.664978 565.372681,620.659180 675.037842,620.648499 
	C677.037476,620.648315 679.037170,620.590271 681.502319,620.507690 
	C680.028809,620.966797 678.090210,621.922180 676.150696,621.923950 
	C592.866333,621.998596 509.581909,621.988892 426.297485,621.988770 
	C401.478729,621.988708 376.659943,621.998169 351.841248,621.960754 
	C350.049469,621.958069 348.258179,621.605652 346.254517,621.043579 
z"/>
<path fill="#0B0345" opacity="1.000000" stroke="none" 
	d="
M696.101074,393.793793 
	C696.146729,420.792328 696.061279,447.563904 696.053650,474.335510 
	C696.041260,517.906799 696.079712,561.478027 696.132507,605.515625 
	C696.168274,605.981873 695.943420,606.414429 695.859131,606.643127 
	C695.521179,605.444336 695.046326,604.017029 695.045532,602.589417 
	C695.007385,533.947083 695.008911,465.304779 695.019409,396.662445 
	C695.019592,395.674042 695.188660,394.685608 695.557678,393.400421 
	C695.836426,393.103638 696.004944,393.566864 696.101074,393.793793 
z"/>
<path fill="#9C5AB5" opacity="1.000000" stroke="none" 
	d="
M590.618286,729.599731 
	C538.944702,729.907288 486.974304,729.935364 434.543518,729.925171 
	C435.490021,729.592957 436.896667,729.043274 438.303772,729.042053 
	C487.993378,728.999329 537.683044,729.006226 587.372681,729.022522 
	C588.355652,729.022827 589.338562,729.216675 590.618286,729.599731 
z"/>
<path fill="#A363BA" opacity="1.000000" stroke="none" 
	d="
M733.595703,439.380432 
	C733.904053,488.391418 733.936218,537.702209 733.939697,587.475220 
	C733.607300,586.533630 733.039551,585.130005 733.038208,583.725891 
	C732.993225,536.527100 733.000671,489.328308 733.016602,442.129486 
	C733.016846,441.313049 733.214233,440.496643 733.595703,439.380432 
z"/>
<path fill="#A86BBD" opacity="1.000000" stroke="none" 
	d="
M467.357788,338.384766 
	C473.712128,338.074982 480.364502,338.046783 487.478821,338.060272 
	C481.179077,338.290070 474.417480,338.478210 467.357788,338.384766 
z"/>
<path fill="#A86BBD" opacity="1.000000" stroke="none" 
	d="
M445.354187,338.382111 
	C450.045197,338.072662 455.032623,338.045197 460.480072,338.060516 
	C455.843597,338.290222 450.747101,338.477142 445.354187,338.382111 
z"/>
<path fill="#A86BBD" opacity="1.000000" stroke="none" 
	d="
M509.353882,338.384399 
	C512.719727,338.077362 516.377014,338.046936 520.487854,338.058533 
	C517.176025,338.287384 513.410706,338.474152 509.353882,338.384399 
z"/>
<path fill="#A86BBD" opacity="1.000000" stroke="none" 
	d="
M495.350189,338.380798 
	C498.716949,338.075562 502.374329,338.048370 506.484924,338.063995 
	C503.172363,338.290833 499.406586,338.474854 495.350189,338.380798 
z"/>
<path fill="#A86BBD" opacity="1.000000" stroke="none" 
	d="
M576.270508,338.357422 
	C577.100342,338.079254 578.138977,338.045074 579.565674,338.047943 
	C578.795654,338.257141 577.637451,338.429291 576.270508,338.357422 
z"/>
<path fill="#A86BBD" opacity="1.000000" stroke="none" 
	d="
M550.238403,338.349152 
	C550.781006,338.090698 551.501038,338.062683 552.579285,338.078125 
	C552.096924,338.274231 551.256348,338.426910 550.238403,338.349152 
z"/>
<path fill="#C78FD3" opacity="1.000000" stroke="none" 
	d="
M332.080017,611.205811 
	C332.381897,611.382263 332.676056,611.880859 333.046082,612.678467 
	C332.772034,612.494263 332.422150,612.011169 332.080017,611.205811 
z"/>
<path fill="#A86BBD" opacity="1.000000" stroke="none" 
	d="
M544.190796,338.323395 
	C544.475098,338.086975 544.896301,338.059967 545.631958,338.072906 
	C545.406860,338.252808 544.867249,338.392822 544.190796,338.323395 
z"/>
<path fill="#C48BD0" opacity="1.000000" stroke="none" 
	d="
M684.830933,377.741394 
	C684.420593,377.853455 683.841248,377.706207 683.078186,377.317444 
	C683.483643,377.211304 684.072815,377.346710 684.830933,377.741394 
z"/>
<path fill="#C78FD3" opacity="1.000000" stroke="none" 
	d="
M334.132446,614.123352 
	C334.313934,614.093811 334.598602,614.325256 334.996674,614.813232 
	C334.818604,614.841309 334.527130,614.612854 334.132446,614.123352 
z"/>
<path fill="#FFFFFF" opacity="1.000000" stroke="none" 
	d="
M498.238770,523.061279 
	C504.163147,516.870911 509.964233,510.556274 516.044495,504.523041 
	C522.966736,497.654266 530.355408,491.247772 537.150818,484.260559 
	C547.420166,473.701447 557.351501,462.813599 568.019043,451.895874 
	C569.114197,451.160522 569.616882,450.594696 570.119507,450.028870 
	C570.480286,450.066742 570.754028,449.930206 571.225342,449.259155 
	C571.701904,448.605225 571.893921,448.311340 572.085938,448.017456 
	C575.320374,444.918518 578.554871,441.819611 582.187500,438.267578 
	C582.822327,437.236176 583.059082,436.657898 583.295837,436.079620 
	C583.295837,436.079620 583.083557,436.056213 583.352051,436.047058 
	C583.804565,435.704285 583.988525,435.370697 584.172485,435.037109 
	C584.172485,435.037140 584.038757,435.034454 584.308472,435.003845 
	C584.782532,434.670013 584.986755,434.366821 585.190979,434.063599 
	C585.190979,434.063599 585.050903,434.051025 585.314514,434.012268 
	C585.770386,433.664520 585.962585,433.355530 586.154785,433.046539 
	C586.154785,433.046539 586.028870,433.032593 586.281433,432.982422 
	C586.729980,432.630493 586.925964,432.328766 587.121887,432.027008 
	C587.468079,432.039124 587.732666,431.898102 588.239990,431.284912 
	C588.769897,430.661896 588.975342,430.357971 589.180847,430.054047 
	C589.180847,430.054047 589.039307,430.040680 589.311401,430.003723 
	C589.814514,429.667419 590.045532,429.368042 590.276611,429.068665 
	C597.663452,423.996429 605.914062,422.470917 613.438293,427.283173 
	C623.012573,433.406616 627.349915,441.112732 625.230164,451.370514 
	C623.922546,457.698395 619.605896,462.019714 614.840454,466.689514 
	C614.269104,467.393860 614.064148,467.686401 613.859131,467.978912 
	C613.859131,467.978912 613.958557,467.974518 613.663696,468.034882 
	C612.868103,468.718994 612.367432,469.342712 611.866760,469.966431 
	C611.524597,469.992706 611.265137,470.152863 610.785400,470.778748 
	C610.269409,471.395203 610.056519,471.679871 609.843567,471.964508 
	C608.618835,473.063660 607.394104,474.162811 605.813843,475.665405 
	C605.258362,476.368683 605.058533,476.668549 604.858643,476.968384 
	C604.858643,476.968384 604.974548,476.974609 604.716064,477.022217 
	C604.251404,477.367004 604.045105,477.664215 603.838867,477.961365 
	C602.938599,478.722351 602.038330,479.483368 600.797852,480.653717 
	C600.251221,481.364868 600.044800,481.666687 599.838379,481.968506 
	C599.838379,481.968506 599.966431,481.970032 599.700195,482.005676 
	C599.229309,482.342102 599.024719,482.642883 598.820129,482.943634 
	C598.820129,482.943634 598.954468,482.954346 598.692871,482.996521 
	C598.224609,483.339447 598.017944,483.640228 597.811279,483.940979 
	C597.811279,483.940979 597.949707,483.950745 597.685791,483.989624 
	C597.220459,484.332123 597.019043,484.635742 596.817627,484.939331 
	C596.817566,484.939331 596.954773,484.952118 596.695496,484.997192 
	C596.232544,485.345062 596.028931,485.647827 595.825256,485.950592 
	C595.825256,485.950592 595.959595,485.959595 595.697571,486.000702 
	C595.228210,486.342712 595.020874,486.643646 594.813538,486.944580 
	C594.813538,486.944580 594.954407,486.955414 594.688110,486.992523 
	C594.211121,487.334900 594.000427,487.640167 593.789734,487.945404 
	C593.443604,487.935425 593.187134,488.082153 592.769775,488.748047 
	C592.337280,489.391937 592.155334,489.673401 591.973389,489.954895 
	C579.287659,502.657196 566.590149,515.347778 553.922607,528.068298 
	C549.635742,532.373108 545.424805,536.753601 540.796875,541.545532 
	C540.207520,542.310425 540.000610,542.629456 539.793701,542.948486 
	C539.793701,542.948486 539.953186,542.951904 539.682312,542.979797 
	C539.215576,543.321716 539.019714,543.635681 538.823853,543.949707 
	C538.823853,543.949707 538.958130,543.958435 538.693115,543.995728 
	C538.227905,544.338501 538.027588,544.644043 537.827271,544.949585 
	C537.827271,544.949585 537.959290,544.959839 537.696472,544.999512 
	C537.237427,545.345459 537.041138,545.651794 536.844910,545.958130 
	C536.844910,545.958130 536.969116,545.966553 536.709473,546.011414 
	C536.250732,546.359131 536.051697,546.662048 535.852661,546.964966 
	C535.852661,546.964966 535.971436,546.971436 535.710144,547.014893 
	C535.244019,547.358704 535.039246,547.659058 534.834473,547.959412 
	C534.834473,547.959412 534.961853,547.965210 534.696228,548.000854 
	C534.226868,548.338379 534.023132,548.640198 533.819336,548.942017 
	C533.819336,548.942017 533.954834,548.954285 533.691040,548.995972 
	C533.222961,549.343445 533.018738,549.649231 532.814514,549.955078 
	C532.255127,550.407410 531.695679,550.859802 530.785767,551.671936 
	C530.228760,552.335144 530.022217,552.638489 529.815674,552.941895 
	C529.815674,552.941895 529.953247,552.953125 529.688965,552.994507 
	C529.222229,553.342468 529.019775,553.648987 528.817261,553.955505 
	C528.471497,553.951965 528.213440,554.100708 527.764160,554.751831 
	C527.277405,555.391602 527.069702,555.681213 526.862000,555.970825 
	C526.511963,555.936829 526.245239,556.069885 525.755798,556.710083 
	C525.252991,557.354797 525.056213,557.659424 524.859375,557.963989 
	C524.859375,557.963989 524.976013,557.972961 524.723328,558.026245 
	C524.267639,558.375305 524.064636,558.671082 523.861694,558.966858 
	C523.509705,558.953308 523.243713,559.097961 522.766724,559.743652 
	C522.271240,560.383362 522.072632,560.680298 521.874084,560.977173 
	C521.874084,560.977173 521.979126,560.980774 521.719849,561.028687 
	C521.254272,561.372253 521.048096,561.667908 520.841858,561.963623 
	C520.497437,561.944397 520.235962,562.082458 519.748901,562.710571 
	C519.238037,563.348755 519.035645,563.654114 518.833313,563.959473 
	C518.833313,563.959473 518.965942,563.965576 518.698364,564.001770 
	C518.223389,564.340332 518.015869,564.642700 517.808350,564.945068 
	C517.808350,564.945068 517.955566,564.955139 517.686035,564.985840 
	C517.210571,565.325073 517.004639,565.633545 516.798767,565.942078 
	C516.798767,565.942078 516.950256,565.950928 516.679810,565.979370 
	C516.209106,566.319519 516.008850,566.631226 515.808655,566.942932 
	C515.808655,566.942932 515.952820,566.953430 515.686096,566.987122 
	C515.219116,567.329651 515.018860,567.638489 514.818604,567.947327 
	C514.818665,567.947327 514.957825,567.958008 514.691284,567.994019 
	C514.227722,568.340332 514.030762,568.650635 513.833801,568.960938 
	C513.485779,568.954468 513.225403,569.102295 512.737854,569.731689 
	C512.179565,570.331177 511.936096,570.603455 511.692596,570.875793 
	C511.692596,570.875793 511.933289,570.841248 511.563965,570.810181 
	C510.717377,571.220093 510.240173,571.661133 509.762939,572.102112 
	C498.549835,581.811035 490.134277,581.491760 479.558472,570.948853 
	C459.172302,550.626099 438.755432,530.333984 418.420258,509.960358 
	C410.591034,502.116241 410.810089,490.800751 418.495728,482.875488 
	C422.925507,478.307617 427.096130,473.768127 434.249573,473.720276 
	C440.103058,473.681122 444.945374,475.570953 449.044006,479.602478 
	C453.788849,484.269684 458.503235,488.967834 463.631104,494.053833 
	C464.342316,494.688751 464.653290,494.922394 464.964264,495.156067 
	C464.964264,495.156067 464.968872,495.034851 465.008362,495.298218 
	C465.349609,495.760254 465.651306,495.958893 465.953033,496.157532 
	C465.953033,496.157532 465.962433,496.033966 466.013184,496.289551 
	C466.368713,496.731506 466.673523,496.917908 466.978302,497.104309 
	C467.414215,497.696472 467.850098,498.288666 468.666565,499.217621 
	C469.351501,499.755798 469.655853,499.957214 469.960205,500.158630 
	C469.960205,500.158630 469.966888,500.032104 470.012634,500.291229 
	C470.362701,500.742371 470.667053,500.934357 470.971405,501.126343 
	C470.979828,501.469849 471.130371,501.731598 471.744873,502.228088 
	C472.366394,502.744232 472.666168,502.943878 472.965942,503.143555 
	C472.965942,503.143555 472.971893,503.028412 473.018463,503.287048 
	C473.366302,503.740753 473.667572,503.935852 473.968811,504.130920 
	C473.968811,504.130951 473.976227,504.022064 474.028320,504.276306 
	C474.378571,504.726654 474.676758,504.922729 474.974945,505.118774 
	C477.355743,507.602325 479.736511,510.085907 482.537170,512.954102 
	C483.292572,513.614014 483.628113,513.889343 483.963654,514.164612 
	C483.963654,514.164612 483.965424,514.035950 484.003540,514.301331 
	C484.345367,514.763489 484.649078,514.960205 484.952789,515.156921 
	C484.952789,515.156921 484.963959,515.031616 485.014343,515.286743 
	C485.366516,515.738708 485.668243,515.935669 485.970001,516.132568 
	C485.959625,516.475281 486.099792,516.737549 486.712402,517.241211 
	C487.337006,517.770264 487.639679,517.977417 487.942383,518.184570 
	C487.942383,518.184570 487.952332,518.048218 487.994324,518.309692 
	C488.337646,518.775452 488.639008,518.979614 488.940369,519.183838 
	C488.940369,519.183838 488.950989,519.049072 488.993835,519.310303 
	C489.340485,519.769287 489.644257,519.967163 489.948059,520.164978 
	C489.948059,520.164978 489.959839,520.036072 490.010132,520.293030 
	C490.360687,520.756714 490.660980,520.963379 490.961243,521.170105 
	C490.961243,521.170105 490.965851,521.037964 490.998718,521.305542 
	C491.334503,521.778137 491.637390,521.983154 491.940277,522.188232 
	C491.940277,522.188232 491.951294,522.048462 491.989929,522.312622 
	C492.331390,522.782959 492.634247,522.989197 492.937103,523.195374 
	C492.937103,523.195374 492.948303,523.051514 492.985474,523.316528 
	C493.326813,523.787415 493.631012,523.993164 493.935181,524.198975 
	C493.935181,524.198975 493.961304,524.092163 494.021118,524.377197 
	C495.100372,524.470276 496.119812,524.278198 497.139282,524.086121 
	C497.139282,524.086121 497.034088,524.080566 497.310516,524.028931 
	C497.804230,523.671936 498.021515,523.366638 498.238770,523.061279 
z"/>
<path fill="#080249" opacity="1.000000" stroke="none" 
	d="
M346.383484,377.434570 
	C383.071869,377.101532 420.057007,377.009430 457.042175,377.006226 
	C531.351501,376.999725 605.660767,377.041779 680.425049,377.141174 
	C679.454163,377.478668 678.028259,377.965942 676.602295,377.966431 
	C567.783142,378.002441 458.964020,378.001068 350.144897,377.989044 
	C348.990021,377.988922 347.835114,377.810791 346.383484,377.434570 
z"/>
<path fill="#0E0549" opacity="1.000000" stroke="none" 
	d="
M331.425140,604.627319 
	C331.094208,560.442322 331.031952,515.960999 331.004150,471.479614 
	C330.987579,444.989014 331.025146,418.498383 331.103882,391.549408 
	C331.445862,392.504852 331.963409,393.918579 331.964172,395.332550 
	C332.002167,464.013275 331.996826,532.694031 331.982208,601.374817 
	C331.981995,602.360229 331.803558,603.345581 331.425140,604.627319 
z"/>
<path fill="#180B4F" opacity="1.000000" stroke="none" 
	d="
M496.729492,524.042847 
	C496.119812,524.278198 495.100372,524.470276 493.966125,524.377869 
	C494.674133,524.062195 495.496918,524.030884 496.729492,524.042847 
z"/>
<path fill="#180B4F" opacity="1.000000" stroke="none" 
	d="
M569.810364,450.055420 
	C569.616882,450.594696 569.114197,451.160522 568.326050,451.734863 
	C568.527405,451.189575 569.014282,450.635803 569.810364,450.055420 
z"/>
<path fill="#180B4F" opacity="1.000000" stroke="none" 
	d="
M612.214233,469.957703 
	C612.367432,469.342712 612.868103,468.718994 613.653931,467.986084 
	C613.479980,468.567627 613.020813,469.258301 612.214233,469.957703 
z"/>
<path fill="#180B4F" opacity="1.000000" stroke="none" 
	d="
M510.119446,572.059448 
	C510.240173,571.661133 510.717377,571.220093 511.525208,570.694946 
	C511.395844,571.079468 510.935883,571.548157 510.119446,572.059448 
z"/>
<path fill="#180B4F" opacity="1.000000" stroke="none" 
	d="
M592.134644,490.123535 
	C592.155334,489.673401 592.337280,489.391937 592.739807,488.977844 
	C592.738831,489.327576 592.517334,489.809906 592.134644,490.123535 
z"/>
<path fill="#180B4F" opacity="1.000000" stroke="none" 
	d="
M582.986450,436.197083 
	C583.059082,436.657898 582.822327,437.236176 582.304749,437.957092 
	C582.241577,437.504639 582.459290,436.909607 582.986450,436.197083 
z"/>
<path fill="#180B4F" opacity="1.000000" stroke="none" 
	d="
M538.094604,544.855408 
	C538.027588,544.644043 538.227905,544.338501 538.688232,543.928589 
	C538.752930,544.136536 538.557434,544.448914 538.094604,544.855408 
z"/>
<path fill="#180B4F" opacity="1.000000" stroke="none" 
	d="
M536.108643,546.858398 
	C536.051697,546.662048 536.250732,546.359131 536.706543,545.949219 
	C536.763733,546.145386 536.564148,546.448669 536.108643,546.858398 
z"/>
<path fill="#180B4F" opacity="1.000000" stroke="none" 
	d="
M535.093201,547.856506 
	C535.039246,547.659058 535.244019,547.358704 535.707031,546.955505 
	C535.760803,547.152954 535.556396,547.453247 535.093201,547.856506 
z"/>
<path fill="#180B4F" opacity="1.000000" stroke="none" 
	d="
M534.090454,548.857056 
	C534.023132,548.640198 534.226868,548.338379 534.690979,547.937378 
	C534.754761,548.149475 534.558167,548.460815 534.090454,548.857056 
z"/>
<path fill="#180B4F" opacity="1.000000" stroke="none" 
	d="
M533.084595,549.859192 
	C533.018738,549.649231 533.222961,549.343445 533.687134,548.928040 
	C533.749634,549.133362 533.552185,549.448364 533.084595,549.859192 
z"/>
<path fill="#180B4F" opacity="1.000000" stroke="none" 
	d="
M530.088257,552.856445 
	C530.022217,552.638489 530.228760,552.335144 530.697876,551.934143 
	C530.760620,552.148010 530.560730,552.459534 530.088257,552.856445 
z"/>
<path fill="#180B4F" opacity="1.000000" stroke="none" 
	d="
M537.107300,545.858337 
	C537.041138,545.651794 537.237427,545.345459 537.692566,544.933350 
	C537.757568,545.137939 537.563660,545.448242 537.107300,545.858337 
z"/>
<path fill="#180B4F" opacity="1.000000" stroke="none" 
	d="
M529.088196,553.860962 
	C529.019775,553.648987 529.222229,553.342468 529.684204,552.925720 
	C529.748779,553.132507 529.553955,553.449524 529.088196,553.860962 
z"/>
<path fill="#180B4F" opacity="1.000000" stroke="none" 
	d="
M527.097656,555.841797 
	C527.069702,555.681213 527.277405,555.391602 527.728027,554.981934 
	C527.758301,555.145447 527.545776,555.429077 527.097656,555.841797 
z"/>
<path fill="#180B4F" opacity="1.000000" stroke="none" 
	d="
M525.118896,557.860229 
	C525.056213,557.659424 525.252991,557.354797 525.704102,556.938599 
	C525.765076,557.136780 525.571716,557.446594 525.118896,557.860229 
z"/>
<path fill="#180B4F" opacity="1.000000" stroke="none" 
	d="
M524.108093,558.850708 
	C524.064636,558.671082 524.267639,558.375305 524.722046,557.967773 
	C524.767151,558.148804 524.560852,558.441711 524.108093,558.850708 
z"/>
<path fill="#180B4F" opacity="1.000000" stroke="none" 
	d="
M522.116272,560.857422 
	C522.072632,560.680298 522.271240,560.383362 522.718689,559.975647 
	C522.764526,560.155823 522.561523,560.446777 522.116272,560.857422 
z"/>
<path fill="#180B4F" opacity="1.000000" stroke="none" 
	d="
M521.092407,561.854248 
	C521.048096,561.667908 521.254272,561.372253 521.717163,560.976196 
	C521.763550,561.165466 521.553223,561.455139 521.092407,561.854248 
z"/>
<path fill="#180B4F" opacity="1.000000" stroke="none" 
	d="
M519.095825,563.856567 
	C519.035645,563.654114 519.238037,563.348755 519.699463,562.936768 
	C519.758484,563.137939 519.558350,563.445740 519.095825,563.856567 
z"/>
<path fill="#180B4F" opacity="1.000000" stroke="none" 
	d="
M518.075073,564.849060 
	C518.015869,564.642700 518.223389,564.340332 518.693848,563.935547 
	C518.751770,564.139771 518.546814,564.446411 518.075073,564.849060 
z"/>
<path fill="#180B4F" opacity="1.000000" stroke="none" 
	d="
M517.068481,565.844727 
	C517.004639,565.633545 517.210571,565.325073 517.681152,564.912231 
	C517.743225,565.121033 517.540710,565.434143 517.068481,565.844727 
z"/>
<path fill="#180B4F" opacity="1.000000" stroke="none" 
	d="
M516.080261,566.848755 
	C516.008850,566.631226 516.209106,566.319519 516.673218,565.903809 
	C516.742065,566.117981 516.546936,566.436218 516.080261,566.848755 
z"/>
<path fill="#180B4F" opacity="1.000000" stroke="none" 
	d="
M515.088135,567.852295 
	C515.018860,567.638489 515.219116,567.329651 515.680908,566.915039 
	C515.747498,567.125305 515.552551,567.441345 515.088135,567.852295 
z"/>
<path fill="#180B4F" opacity="1.000000" stroke="none" 
	d="
M514.098267,568.859375 
	C514.030762,568.650635 514.227722,568.340332 514.687256,567.924316 
	C514.754089,568.131714 514.558411,568.444763 514.098267,568.859375 
z"/>
<path fill="#180B4F" opacity="1.000000" stroke="none" 
	d="
M511.967285,570.794556 
	C511.936096,570.603455 512.179565,570.331177 512.696045,569.962158 
	C512.726685,570.148071 512.484314,570.430725 511.967285,570.794556 
z"/>
<path fill="#180B4F" opacity="1.000000" stroke="none" 
	d="
M614.097168,467.857605 
	C614.064148,467.686401 614.269104,467.393860 614.726868,467.002808 
	C614.764832,467.181610 614.550049,467.458954 614.097168,467.857605 
z"/>
<path fill="#180B4F" opacity="1.000000" stroke="none" 
	d="
M571.853882,448.146271 
	C571.893921,448.311340 571.701904,448.605225 571.271240,449.022766 
	C571.228943,448.856018 571.425354,448.565552 571.853882,448.146271 
z"/>
<path fill="#180B4F" opacity="1.000000" stroke="none" 
	d="
M583.908081,435.155731 
	C583.988525,435.370697 583.804565,435.704285 583.355713,436.153778 
	C583.275146,435.937897 583.459412,435.606140 583.908081,435.155731 
z"/>
<path fill="#180B4F" opacity="1.000000" stroke="none" 
	d="
M584.916931,434.145966 
	C584.986755,434.366821 584.782532,434.670013 584.315308,435.070374 
	C584.249146,434.854462 584.445984,434.541382 584.916931,434.145966 
z"/>
<path fill="#180B4F" opacity="1.000000" stroke="none" 
	d="
M585.886353,433.139374 
	C585.962585,433.355530 585.770386,433.664520 585.319580,434.082397 
	C585.246704,433.871582 585.432312,433.551880 585.886353,433.139374 
z"/>
<path fill="#180B4F" opacity="1.000000" stroke="none" 
	d="
M586.876831,432.146545 
	C586.925964,432.328766 586.729980,432.630493 586.281311,433.045715 
	C586.229675,432.861511 586.430725,432.563812 586.876831,432.146545 
z"/>
<path fill="#180B4F" opacity="1.000000" stroke="none" 
	d="
M588.911438,430.142395 
	C588.975342,430.357971 588.769897,430.661896 588.300049,431.058716 
	C588.237854,430.844635 588.439941,430.537689 588.911438,430.142395 
z"/>
<path fill="#180B4F" opacity="1.000000" stroke="none" 
	d="
M589.997192,429.163849 
	C590.045532,429.368042 589.814514,429.667419 589.313599,430.074799 
	C589.268433,429.874878 589.493103,429.566956 589.997192,429.163849 
z"/>
<path fill="#180B4F" opacity="1.000000" stroke="none" 
	d="
M474.857819,504.875854 
	C474.676758,504.922729 474.378571,504.726654 473.973755,504.277771 
	C474.158325,504.227631 474.449493,504.430267 474.857819,504.875854 
z"/>
<path fill="#180B4F" opacity="1.000000" stroke="none" 
	d="
M599.089600,482.856384 
	C599.024719,482.642883 599.229309,482.342102 599.693787,481.941956 
	C599.755493,482.151459 599.557312,482.460297 599.089600,482.856384 
z"/>
<path fill="#180B4F" opacity="1.000000" stroke="none" 
	d="
M598.083252,483.852112 
	C598.017944,483.640228 598.224609,483.339447 598.688049,482.929260 
	C598.748291,483.134369 598.551758,483.448822 598.083252,483.852112 
z"/>
<path fill="#180B4F" opacity="1.000000" stroke="none" 
	d="
M597.092041,484.854675 
	C597.019043,484.635742 597.220459,484.332123 597.679565,483.920563 
	C597.746948,484.131714 597.556702,484.450836 597.092041,484.854675 
z"/>
<path fill="#180B4F" opacity="1.000000" stroke="none" 
	d="
M596.091858,485.852722 
	C596.028931,485.647827 596.232544,485.345062 596.691528,484.928406 
	C596.750732,485.127960 596.554626,485.441406 596.091858,485.852722 
z"/>
<path fill="#180B4F" opacity="1.000000" stroke="none" 
	d="
M595.081360,486.850037 
	C595.020874,486.643646 595.228210,486.342712 595.692993,485.933533 
	C595.750061,486.135345 595.549622,486.445404 595.081360,486.850037 
z"/>
<path fill="#180B4F" opacity="1.000000" stroke="none" 
	d="
M594.064514,487.854187 
	C594.000427,487.640167 594.211121,487.334900 594.683472,486.922058 
	C594.743225,487.130646 594.541260,487.446777 594.064514,487.854187 
z"/>
<path fill="#180B4F" opacity="1.000000" stroke="none" 
	d="
M604.092529,477.852966 
	C604.045105,477.664215 604.251404,477.367004 604.713501,476.964233 
	C604.761597,477.153961 604.553894,477.449249 604.092529,477.852966 
z"/>
<path fill="#180B4F" opacity="1.000000" stroke="none" 
	d="
M605.109985,476.858154 
	C605.058533,476.668549 605.258362,476.368683 605.711365,475.961182 
	C605.763428,476.151672 605.562378,476.449768 605.109985,476.858154 
z"/>
<path fill="#180B4F" opacity="1.000000" stroke="none" 
	d="
M464.852844,494.885223 
	C464.653290,494.922394 464.342316,494.688751 463.931213,494.171814 
	C464.134552,494.130493 464.437988,494.372437 464.852844,494.885223 
z"/>
<path fill="#180B4F" opacity="1.000000" stroke="none" 
	d="
M465.860321,495.893738 
	C465.651306,495.958893 465.349609,495.760254 464.947937,495.303253 
	C465.154541,495.239929 465.461060,495.434937 465.860321,495.893738 
z"/>
<path fill="#180B4F" opacity="1.000000" stroke="none" 
	d="
M466.863464,496.857056 
	C466.673523,496.917908 466.368713,496.731506 465.951294,496.292877 
	C466.141998,496.230347 466.445282,496.420105 466.863464,496.857056 
z"/>
<path fill="#180B4F" opacity="1.000000" stroke="none" 
	d="
M469.856934,499.896729 
	C469.655853,499.957214 469.351501,499.755798 468.935028,499.299072 
	C469.133179,499.240753 469.443420,499.437805 469.856934,499.896729 
z"/>
<path fill="#180B4F" opacity="1.000000" stroke="none" 
	d="
M470.863190,500.873047 
	C470.667053,500.934357 470.362701,500.742371 469.949402,500.295166 
	C470.145294,500.233276 470.450134,500.426544 470.863190,500.873047 
z"/>
<path fill="#180B4F" opacity="1.000000" stroke="none" 
	d="
M472.862030,502.890625 
	C472.666168,502.943878 472.366394,502.744232 471.972229,502.286072 
	C472.171265,502.230957 472.464691,502.434326 472.862030,502.890625 
z"/>
<path fill="#180B4F" opacity="1.000000" stroke="none" 
	d="
M473.862244,503.878418 
	C473.667572,503.935852 473.366302,503.740753 472.960907,503.290405 
	C473.156403,503.232086 473.456055,503.429016 473.862244,503.878418 
z"/>
<path fill="#180B4F" opacity="1.000000" stroke="none" 
	d="
M600.095581,481.854584 
	C600.044800,481.666687 600.251221,481.364868 600.706848,480.939240 
	C600.755005,481.123840 600.553894,481.432251 600.095581,481.854584 
z"/>
<path fill="#180B4F" opacity="1.000000" stroke="none" 
	d="
M483.837341,513.864990 
	C483.628113,513.889343 483.292572,513.614014 482.844635,513.007324 
	C483.058502,512.972473 483.384766,513.268982 483.837341,513.864990 
z"/>
<path fill="#180B4F" opacity="1.000000" stroke="none" 
	d="
M484.861633,514.890747 
	C484.649078,514.960205 484.345367,514.763489 483.939575,514.308289 
	C484.148499,514.241455 484.459473,514.433044 484.861633,514.890747 
z"/>
<path fill="#180B4F" opacity="1.000000" stroke="none" 
	d="
M485.855896,515.882263 
	C485.668243,515.935669 485.366516,515.738708 484.951477,515.288696 
	C485.139404,515.234314 485.440613,515.433167 485.855896,515.882263 
z"/>
<path fill="#180B4F" opacity="1.000000" stroke="none" 
	d="
M487.856934,517.912231 
	C487.639679,517.977417 487.337006,517.770264 486.936676,517.300781 
	C487.149841,517.238953 487.460663,517.439392 487.856934,517.912231 
z"/>
<path fill="#180B4F" opacity="1.000000" stroke="none" 
	d="
M488.854370,518.910278 
	C488.639008,518.979614 488.337646,518.775452 487.926208,518.315430 
	C488.133514,518.252014 488.450928,518.444397 488.854370,518.910278 
z"/>
<path fill="#180B4F" opacity="1.000000" stroke="none" 
	d="
M489.859314,519.894287 
	C489.644257,519.967163 489.340485,519.769287 488.926483,519.315918 
	C489.134369,519.248169 489.452484,519.435913 489.859314,519.894287 
z"/>
<path fill="#180B4F" opacity="1.000000" stroke="none" 
	d="
M490.852783,520.911133 
	C490.660980,520.963379 490.360687,520.756714 489.945496,520.295715 
	C490.135132,520.244995 490.439758,520.448547 490.852783,520.911133 
z"/>
<path fill="#180B4F" opacity="1.000000" stroke="none" 
	d="
M491.853394,521.917114 
	C491.637390,521.983154 491.334503,521.778137 490.932861,521.311218 
	C491.144897,521.248291 491.455719,521.447144 491.853394,521.917114 
z"/>
<path fill="#180B4F" opacity="1.000000" stroke="none" 
	d="
M492.849915,522.921143 
	C492.634247,522.989197 492.331390,522.782959 491.920013,522.317993 
	C492.128571,522.255066 492.445679,522.450989 492.849915,522.921143 
z"/>
<path fill="#180B4F" opacity="1.000000" stroke="none" 
	d="
M493.848389,523.923523 
	C493.631012,523.993164 493.326813,523.787415 492.913544,523.322388 
	C493.123505,523.258118 493.442566,523.453064 493.848389,523.923523 
z"/>
<path fill="#180B4F" opacity="1.000000" stroke="none" 
	d="
M497.961304,523.153687 
	C498.021515,523.366638 497.804230,523.671936 497.320160,524.080688 
	C497.263519,523.871399 497.473663,523.558777 497.961304,523.153687 
z"/>
<path fill="#180B4F" opacity="1.000000" stroke="none" 
	d="
M610.081421,471.843903 
	C610.056519,471.679871 610.269409,471.395203 610.732056,471.008820 
	C610.760925,471.179138 610.540100,471.451233 610.081421,471.843903 
z"/>
<path fill="#180B4F" opacity="1.000000" stroke="none" 
	d="
M540.069458,542.840210 
	C540.000610,542.629456 540.207520,542.310425 540.674194,541.860962 
	C540.737671,542.064392 540.541443,542.398193 540.069458,542.840210 
z"/>
<path fill="#180B4F" opacity="1.000000" stroke="none" 
	d="
M539.092896,543.851685 
	C539.019714,543.635681 539.215576,543.321716 539.673462,542.900513 
	C539.744324,543.113464 539.553101,543.433533 539.092896,543.851685 
z"/>
</svg>