<svg xmlns="http://www.w3.org/2000/svg" viewBox="0 0 768 768" role="img" aria-label="MediaTracker Logo">
  <defs>
    <linearGradient id="bgGradient" x1="0" y1="0" x2="1" y2="1">
      <stop offset="0" stop-color="#C8A6FF"/>
      <stop offset="1" stop-color="#6F46C2"/>
    </linearGradient>
  </defs>
  <!-- Background circle with transparent holes (sides/top/bottom). The overall background is transparent. -->
  <g>
    <!-- Outer circle -->
    <circle cx="384" cy="384" r="288" fill="url(#bgGradient)" />
    <!-- Cutouts: 3 circular holes to match the reference design (white circles become transparent) -->
    <circle cx="384" cy="144" r="64" fill="#000" fill-opacity="0"/>
    <circle cx="160" cy="384" r="64" fill="#000" fill-opacity="0"/>
    <circle cx="384" cy="624" r="64" fill="#000" fill-opacity="0"/>
  </g>
  <!-- Monitor shape (rounded rectangle + stand) in a slightly darker purple -->
  <g fill="#6B4BBE">
    <rect x="240" y="260" width="288" height="192" rx="28" ry="28"/>
    <rect x="356" y="468" width="56" height="44" rx="10"/>
    <rect x="328" y="508" width="112" height="20" rx="10"/>
  </g>
  <!-- Checkmark in white (only element that should remain white) -->
  <path fill="#FFFFFF" d="M318 356c-6 0-12 2-16 7l-34 38c-8 9-7 22 2 30 9 8 22 7 30-2l23-26 43 33c9 7 22 5 29-4l83-111c7-9 5-22-5-29-9-7-22-5-29 4l-66 88-39-30c-4-3-8-4-12-4z"/>
</svg>
